<?xml version="1.0" encoding="UTF-8" standalone="no"?><!-- Generator: Gravit.io --><svg xmlns="http://www.w3.org/2000/svg" xmlns:xlink="http://www.w3.org/1999/xlink" style="isolation:isolate" viewBox="876.03 455.63 50.94 58.741" width="50.94pt" height="58.741pt"><path d="M 893.666 457.561 L 925.954 499.706 C 927.609 501.866 927.199 504.962 925.039 506.617 L 916.244 513.354 C 914.085 515.009 910.988 514.599 909.334 512.439 L 877.046 470.294 C 875.391 468.134 875.801 465.038 877.961 463.383 L 886.756 456.646 C 888.915 454.991 892.012 455.401 893.666 457.561 Z" style="stroke:none;fill:#C35FFD;stroke-miterlimit:10;"/><path d="M 880.239 480.974 L 897.71 503.771 C 898.28 504.514 898.139 505.579 897.395 506.148 L 896.23 507.041 C 895.487 507.61 894.421 507.469 893.851 506.726 L 876.38 483.929 C 875.81 483.186 875.951 482.121 876.695 481.552 L 877.86 480.659 C 878.603 480.09 879.669 480.231 880.239 480.974 Z" style="stroke:none;fill:#9041FE;stroke-miterlimit:10;"/><path d="M 906.927 461.125 L 924.391 483.929 C 924.96 484.672 924.819 485.738 924.076 486.308 L 922.911 487.2 C 922.168 487.77 921.103 487.629 920.533 486.885 L 903.069 464.081 C 902.5 463.338 902.641 462.272 903.384 461.702 L 904.549 460.81 C 905.292 460.24 906.357 460.381 906.927 461.125 Z" style="stroke:none;fill:#9041FE;stroke-miterlimit:10;"/></svg>