<?xml version="1.0" encoding="UTF-8" standalone="no"?><!-- Generator: Gravit.io --><svg xmlns="http://www.w3.org/2000/svg" xmlns:xlink="http://www.w3.org/1999/xlink" style="isolation:isolate" viewBox="598 285 209.252 70.313" width="209.252pt" height="70.313pt"><g opacity="0.56"><path d=" M 602.922 301.172 L 611.389 301.172 L 611.389 308.965 L 616.809 308.965 L 616.809 315.176 L 611.389 315.176 L 611.389 330.996 L 611.389 330.996 Q 611.389 332.754 612.063 333.516 L 612.063 333.516 L 612.063 333.516 Q 612.736 334.277 614.641 334.277 L 614.641 334.277 L 614.641 334.277 Q 616.047 334.277 617.131 334.072 L 617.131 334.072 L 617.131 340.488 L 617.131 340.488 Q 614.641 341.25 612.004 341.25 L 612.004 341.25 L 612.004 341.25 Q 603.098 341.25 602.922 332.256 L 602.922 332.256 L 602.922 315.176 L 598.293 315.176 L 598.293 308.965 L 602.922 308.965 L 602.922 301.172 L 602.922 301.172 Z  M 648.449 340.664 L 639.895 340.664 L 639.895 340.664 Q 639.309 339.521 639.045 337.822 L 639.045 337.822 L 639.045 337.822 Q 635.969 341.25 631.047 341.25 L 631.047 341.25 L 631.047 341.25 Q 626.389 341.25 623.327 338.555 L 623.327 338.555 L 623.327 338.555 Q 620.266 335.859 620.266 331.758 L 620.266 331.758 L 620.266 331.758 Q 620.266 326.719 624.001 324.023 L 624.001 324.023 L 624.001 324.023 Q 627.736 321.328 634.797 321.299 L 634.797 321.299 L 638.693 321.299 L 638.693 319.482 L 638.693 319.482 Q 638.693 317.285 637.565 315.967 L 637.565 315.967 L 637.565 315.967 Q 636.438 314.648 634.006 314.648 L 634.006 314.648 L 634.006 314.648 Q 631.867 314.648 630.651 315.674 L 630.651 315.674 L 630.651 315.674 Q 629.436 316.699 629.436 318.486 L 629.436 318.486 L 620.969 318.486 L 620.969 318.486 Q 620.969 315.732 622.668 313.389 L 622.668 313.389 L 622.668 313.389 Q 624.367 311.045 627.473 309.712 L 627.473 309.712 L 627.473 309.712 Q 630.578 308.379 634.445 308.379 L 634.445 308.379 L 634.445 308.379 Q 640.305 308.379 643.747 311.323 L 643.747 311.323 L 643.747 311.323 Q 647.189 314.268 647.189 319.6 L 647.189 319.6 L 647.189 333.34 L 647.189 333.34 Q 647.219 337.852 648.449 340.166 L 648.449 340.166 L 648.449 340.664 L 648.449 340.664 Z  M 632.893 334.775 L 632.893 334.775 L 632.893 334.775 Q 634.768 334.775 636.35 333.94 L 636.35 333.94 L 636.35 333.94 Q 637.932 333.105 638.693 331.699 L 638.693 331.699 L 638.693 326.25 L 635.529 326.25 L 635.529 326.25 Q 629.172 326.25 628.762 330.645 L 628.762 330.645 L 628.732 331.143 L 628.732 331.143 Q 628.732 332.725 629.846 333.75 L 629.846 333.75 L 629.846 333.75 Q 630.959 334.775 632.893 334.775 Z  M 670.861 331.904 L 670.861 331.904 L 670.861 331.904 Q 670.861 330.352 669.323 329.458 L 669.323 329.458 L 669.323 329.458 Q 667.785 328.564 664.387 327.861 L 664.387 327.861 L 664.387 327.861 Q 653.078 325.488 653.078 318.252 L 653.078 318.252 L 653.078 318.252 Q 653.078 314.033 656.579 311.206 L 656.579 311.206 L 656.579 311.206 Q 660.08 308.379 665.734 308.379 L 665.734 308.379 L 665.734 308.379 Q 671.77 308.379 675.388 311.221 L 675.388 311.221 L 675.388 311.221 Q 679.006 314.062 679.006 318.604 L 679.006 318.604 L 670.539 318.604 L 670.539 318.604 Q 670.539 316.787 669.367 315.601 L 669.367 315.601 L 669.367 315.601 Q 668.195 314.414 665.705 314.414 L 665.705 314.414 L 665.705 314.414 Q 663.566 314.414 662.395 315.381 L 662.395 315.381 L 662.395 315.381 Q 661.223 316.348 661.223 317.842 L 661.223 317.842 L 661.223 317.842 Q 661.223 319.248 662.556 320.112 L 662.556 320.112 L 662.556 320.112 Q 663.889 320.977 667.053 321.606 L 667.053 321.606 L 667.053 321.606 Q 670.217 322.236 672.385 323.027 L 672.385 323.027 L 672.385 323.027 Q 679.094 325.488 679.094 331.553 L 679.094 331.553 L 679.094 331.553 Q 679.094 335.889 675.373 338.569 L 675.373 338.569 L 675.373 338.569 Q 671.652 341.25 665.764 341.25 L 665.764 341.25 L 665.764 341.25 Q 661.779 341.25 658.688 339.829 L 658.688 339.829 L 658.688 339.829 Q 655.598 338.408 653.84 335.933 L 653.84 335.933 L 653.84 335.933 Q 652.082 333.457 652.082 330.586 L 652.082 330.586 L 660.109 330.586 L 660.109 330.586 Q 660.227 332.842 661.779 334.043 L 661.779 334.043 L 661.779 334.043 Q 663.332 335.244 665.939 335.244 L 665.939 335.244 L 665.939 335.244 Q 668.371 335.244 669.616 334.321 L 669.616 334.321 L 669.616 334.321 Q 670.861 333.398 670.861 331.904 Z  M 704.201 340.664 L 696.057 327.949 L 693.01 330.996 L 693.01 340.664 L 684.543 340.664 L 684.543 295.664 L 693.01 295.664 L 693.01 320.596 L 694.65 318.486 L 702.766 308.965 L 712.932 308.965 L 701.477 322.178 L 713.928 340.664 L 704.201 340.664 L 704.201 340.664 Z  M 733.762 331.904 L 733.762 331.904 L 733.762 331.904 Q 733.762 330.352 732.224 329.458 L 732.224 329.458 L 732.224 329.458 Q 730.686 328.564 727.287 327.861 L 727.287 327.861 L 727.287 327.861 Q 715.979 325.488 715.979 318.252 L 715.979 318.252 L 715.979 318.252 Q 715.979 314.033 719.479 311.206 L 719.479 311.206 L 719.479 311.206 Q 722.98 308.379 728.635 308.379 L 728.635 308.379 L 728.635 308.379 Q 734.67 308.379 738.288 311.221 L 738.288 311.221 L 738.288 311.221 Q 741.906 314.062 741.906 318.604 L 741.906 318.604 L 733.439 318.604 L 733.439 318.604 Q 733.439 316.787 732.268 315.601 L 732.268 315.601 L 732.268 315.601 Q 731.096 314.414 728.605 314.414 L 728.605 314.414 L 728.605 314.414 Q 726.467 314.414 725.295 315.381 L 725.295 315.381 L 725.295 315.381 Q 724.123 316.348 724.123 317.842 L 724.123 317.842 L 724.123 317.842 Q 724.123 319.248 725.456 320.112 L 725.456 320.112 L 725.456 320.112 Q 726.789 320.977 729.953 321.606 L 729.953 321.606 L 729.953 321.606 Q 733.117 322.236 735.285 323.027 L 735.285 323.027 L 735.285 323.027 Q 741.994 325.488 741.994 331.553 L 741.994 331.553 L 741.994 331.553 Q 741.994 335.889 738.273 338.569 L 738.273 338.569 L 738.273 338.569 Q 734.553 341.25 728.664 341.25 L 728.664 341.25 L 728.664 341.25 Q 724.68 341.25 721.589 339.829 L 721.589 339.829 L 721.589 339.829 Q 718.498 338.408 716.74 335.933 L 716.74 335.933 L 716.74 335.933 Q 714.982 333.457 714.982 330.586 L 714.982 330.586 L 723.01 330.586 L 723.01 330.586 Q 723.127 332.842 724.68 334.043 L 724.68 334.043 L 724.68 334.043 Q 726.232 335.244 728.84 335.244 L 728.84 335.244 L 728.84 335.244 Q 731.271 335.244 732.517 334.321 L 732.517 334.321 L 732.517 334.321 Q 733.762 333.398 733.762 331.904 Z " id="Compound Path" fill="rgb(144,65,254)"/></g><path d="M 773.946 290.171 L 806.234 332.316 C 807.889 334.476 807.479 337.572 805.319 339.227 L 796.524 345.964 C 794.365 347.619 791.268 347.209 789.614 345.049 L 757.326 302.904 C 755.671 300.744 756.081 297.648 758.241 295.993 L 767.036 289.256 C 769.195 287.601 772.292 288.011 773.946 290.171 Z" style="stroke:none;fill:#C35FFD;stroke-miterlimit:10;"/><path d="M 760.519 313.575 L 777.99 336.379 C 778.56 337.122 778.419 338.188 777.675 338.758 L 776.51 339.65 C 775.767 340.22 774.701 340.079 774.131 339.335 L 756.66 316.531 C 756.09 315.788 756.231 314.722 756.975 314.152 L 758.14 313.26 C 758.883 312.69 759.949 312.831 760.519 313.575 Z" style="stroke:none;fill:#9041FE;stroke-miterlimit:10;"/><path d="M 787.209 293.735 L 804.68 316.539 C 805.25 317.282 805.109 318.348 804.365 318.918 L 803.2 319.81 C 802.457 320.38 801.391 320.239 800.821 319.495 L 783.35 296.691 C 782.78 295.948 782.921 294.882 783.665 294.312 L 784.83 293.42 C 785.573 292.85 786.639 292.991 787.209 293.735 Z" style="stroke:none;fill:#9041FE;stroke-miterlimit:10;"/></svg>